<svg xmlns="http://www.w3.org/2000/svg">
    <defs>
        <symbol id="logo"> 
            <rect y="1" width="30" height="30" fill="currentColor"/>
            <rect x="38" width="32" height="32" rx="16" fill="currentColor"/>
            <path d="M78 0L110 32H78V0Z" fill="currentColor"/>
        </symbol>
        

        <symbol id="qwestion">
            <path fill-rule="evenodd" clip-rule="evenodd" d="M12 3C7.02944 3 3 7.02944 3 12C3 16.9706 7.02944 21 12 21C16.9706 21 21 16.9706 21 12C21 7.02944 16.9706 3 12 3ZM1 12C1 5.92487 5.92487 1 12 1C18.0751 1 23 5.92487 23 12C23 18.0751 18.0751 23 12 23C5.92487 23 1 18.0751 1 12Z" fill="currentColor"/>
            <path fill-rule="evenodd" clip-rule="evenodd" d="M12.2581 8.02432C11.7926 7.94447 11.3138 8.03195 10.9066 8.27126C10.4994 8.51058 10.1901 8.88629 10.0333 9.33184C9.85006 9.85283 9.27914 10.1266 8.75815 9.94333C8.23716 9.76006 7.96339 9.18915 8.14666 8.66816C8.46013 7.77705 9.07886 7.02563 9.89327 6.547C10.7077 6.06837 11.6652 5.89341 12.5962 6.05311C13.5273 6.2128 14.3717 6.69686 14.9801 7.41953C15.5883 8.14205 15.9213 9.05648 15.92 10.0009C15.9195 11.5313 14.7849 12.5419 13.9747 13.082C13.5391 13.3725 13.1105 13.586 12.7949 13.7263C12.6356 13.7971 12.5015 13.8508 12.4049 13.8876C12.3565 13.906 12.3173 13.9203 12.2887 13.9305L12.254 13.9427L12.2429 13.9464L12.239 13.9478L12.2375 13.9483C12.2372 13.9484 12.2362 13.9487 11.92 13L12.2362 13.9487C11.7123 14.1233 11.146 13.8402 10.9713 13.3162C10.7968 12.7926 11.0794 12.2267 11.6027 12.0517L11.6014 12.0521C11.6015 12.0521 11.6016 12.052 11.6027 12.0517L11.6187 12.0461C11.6341 12.0406 11.6593 12.0314 11.6929 12.0186C11.7603 11.9929 11.8606 11.9529 11.9826 11.8987C12.2294 11.789 12.5509 11.6275 12.8653 11.4179C13.5549 10.9582 13.92 10.4691 13.92 10L13.92 9.99851C13.9207 9.52619 13.7542 9.06886 13.45 8.70753C13.1459 8.34619 12.7236 8.10417 12.2581 8.02432Z" fill="currentColor"/>
            <path fill-rule="evenodd" clip-rule="evenodd" d="M12 15C12.5523 15 13 15.4477 13 16V16.5C13 17.0523 12.5523 17.5 12 17.5C11.4477 17.5 11 17.0523 11 16.5V16C11 15.4477 11.4477 15 12 15Z" fill="currentColor"/>
        </symbol>

        <symbol id="burger">
            <path fill-rule="evenodd" clip-rule="evenodd" d="M2 12C2 11.4477 2.44772 11 3 11H21C21.5523 11 22 11.4477 22 12C22 12.5523 21.5523 13 21 13H3C2.44772 13 2 12.5523 2 12Z" fill="currentColor"/>
            <path fill-rule="evenodd" clip-rule="evenodd" d="M2 6C2 5.44772 2.44772 5 3 5H21C21.5523 5 22 5.44772 22 6C22 6.55228 21.5523 7 21 7H3C2.44772 7 2 6.55228 2 6Z" fill="currentColor"/>
            <path fill-rule="evenodd" clip-rule="evenodd" d="M2 18C2 17.4477 2.44772 17 3 17H21C21.5523 17 22 17.4477 22 18C22 18.5523 21.5523 19 21 19H3C2.44772 19 2 18.5523 2 18Z" fill="currentColor"/>
        </symbol>

        <symbol id="close-menu">
            <circle cx="16" cy="16" r="16" fill="#DDE2E5"/>
            <path d="M22 10L10 22" stroke="#212429" stroke-width="2" stroke-linecap="round" stroke-linejoin="round"/>
            <path d="M10 10L22 22" stroke="#212429" stroke-width="2" stroke-linecap="round" stroke-linejoin="round"/>
        </symbol>


        <symbol id="close"> 
        <path fill-rule="evenodd" clip-rule="evenodd" d="M0.292893 0.292893C0.683417 -0.0976311 1.31658 -0.0976311 1.70711 0.292893L13.7071 12.2929C14.0976 12.6834 14.0976 13.3166 13.7071 13.7071C13.3166 14.0976 12.6834 14.0976 12.2929 13.7071L0.292893 1.70711C-0.0976311 1.31658 -0.0976311 0.683417 0.292893 0.292893Z" fill="currentColor"/>
        </symbol>

       
        <symbol id="acordion__"> 
        <path fill-rule="evenodd" clip-rule="evenodd" d="M0.292893 0.292893C0.683417 -0.0976311 1.31658 -0.0976311 1.70711 0.292893L9 7.58579L16.2929 0.292893C16.6834 -0.0976311 17.3166 -0.0976311 17.7071 0.292893C18.0976 0.683417 18.0976 1.31658 17.7071 1.70711L9.70711 9.70711C9.31658 10.0976 8.68342 10.0976 8.29289 9.70711L0.292893 1.70711C-0.0976311 1.31658 -0.0976311 0.683417 0.292893 0.292893Z" fill="currentColor"/>
        </symbol>

        <symbol id="sun">
        <path fill-rule="evenodd" clip-rule="evenodd" d="M12 8C9.79086 8 8 9.79086 8 12C8 14.2091 9.79086 16 12 16C14.2091 16 16 14.2091 16 12C16 9.79086 14.2091 8 12 8ZM6 12C6 8.68629 8.68629 6 12 6C15.3137 6 18 8.68629 18 12C18 15.3137 15.3137 18 12 18C8.68629 18 6 15.3137 6 12Z" fill="currentColor"/>
        <path fill-rule="evenodd" clip-rule="evenodd" d="M12 0C12.5523 0 13 0.447715 13 1V3C13 3.55228 12.5523 4 12 4C11.4477 4 11 3.55228 11 3V1C11 0.447715 11.4477 0 12 0Z" fill="currentColor"/>
        <path fill-rule="evenodd" clip-rule="evenodd" d="M12 20C12.5523 20 13 20.4477 13 21V23C13 23.5523 12.5523 24 12 24C11.4477 24 11 23.5523 11 23V21C11 20.4477 11.4477 20 12 20Z" fill="currentColor"/>
        <path fill-rule="evenodd" clip-rule="evenodd" d="M3.51286 3.51286C3.90339 3.12234 4.53655 3.12234 4.92708 3.51286L6.34708 4.93286C6.7376 5.32339 6.7376 5.95655 6.34708 6.34708C5.95655 6.7376 5.32339 6.7376 4.93286 6.34708L3.51286 4.92708C3.12234 4.53655 3.12234 3.90339 3.51286 3.51286Z" fill="currentColor"/>
        <path fill-rule="evenodd" clip-rule="evenodd" d="M17.653 17.6529C18.0435 17.2624 18.6767 17.2624 19.0672 17.6529L20.4872 19.0729C20.8777 19.4634 20.8777 20.0966 20.4872 20.4871C20.0967 20.8776 19.4635 20.8776 19.073 20.4871L17.653 19.0671C17.2625 18.6766 17.2625 18.0434 17.653 17.6529Z" fill="currentColor"/>
        <path fill-rule="evenodd" clip-rule="evenodd" d="M0 12C0 11.4477 0.447715 11 1 11H3C3.55228 11 4 11.4477 4 12C4 12.5523 3.55228 13 3 13H1C0.447715 13 0 12.5523 0 12Z" fill="currentColor"/>
        <path fill-rule="evenodd" clip-rule="evenodd" d="M20 12C20 11.4477 20.4477 11 21 11H23C23.5523 11 24 11.4477 24 12C24 12.5523 23.5523 13 23 13H21C20.4477 13 20 12.5523 20 12Z" fill="currentColor"/>
        <path fill-rule="evenodd" clip-rule="evenodd" d="M6.34708 17.6529C6.7376 18.0434 6.7376 18.6766 6.34708 19.0671L4.92708 20.4871C4.53655 20.8776 3.90339 20.8776 3.51286 20.4871C3.12234 20.0966 3.12234 19.4634 3.51286 19.0729L4.93286 17.6529C5.32339 17.2624 5.95655 17.2624 6.34708 17.6529Z" fill="currentColor"/>
        <path fill-rule="evenodd" clip-rule="evenodd" d="M20.4872 3.51286C20.8777 3.90339 20.8777 4.53655 20.4872 4.92708L19.0672 6.34708C18.6767 6.7376 18.0435 6.7376 17.653 6.34708C17.2625 5.95655 17.2625 5.32339 17.653 4.93286L19.073 3.51286C19.4635 3.12234 20.0967 3.12234 20.4872 3.51286Z" fill="currentColor"/>
        </symbol>

        <symbol id="moon">
        <path fill-rule="evenodd" clip-rule="evenodd" d="M12.0811 2.50904C12.2746 2.85242 12.2484 3.27745 12.0141 3.59442C11.1598 4.75008 10.7488 6.17395 10.8557 7.60706C10.9625 9.04018 11.5802 10.3873 12.5964 11.4035C13.6126 12.4197 14.9597 13.0374 16.3929 13.1443C17.826 13.2511 19.2498 12.8401 20.4055 11.9859L20.9999 12.79L21.9957 12.882C21.8209 14.7734 21.1111 16.5758 19.9493 18.0785C18.7875 19.5811 17.2218 20.7218 15.4353 21.3671C13.6489 22.0124 11.7156 22.1355 9.86177 21.7221C8.0079 21.3088 6.3101 20.376 4.96702 19.0329C3.62394 17.6898 2.69115 15.992 2.27778 14.1381C1.86441 12.2843 1.98757 10.351 2.63284 8.56459C3.27811 6.77816 4.4188 5.21244 5.92145 4.05065C7.4241 2.88886 9.22654 2.17904 11.1179 2.00426C11.5104 1.96799 11.8876 2.16566 12.0811 2.50904ZM19.5608 14.6836C18.5077 15.0646 17.3781 15.2233 16.2441 15.1387C14.3333 14.9962 12.5371 14.1726 11.1822 12.8177C9.82729 11.4628 9.0037 9.66661 8.8612 7.7558C8.77664 6.62183 8.93528 5.4922 9.31629 4.43908C8.53868 4.72043 7.8055 5.12204 7.14478 5.63289C5.94266 6.56232 5.0301 7.81489 4.51389 9.24404C3.99767 10.6732 3.89914 12.2198 4.22984 13.7029C4.56054 15.186 5.30677 16.5442 6.38123 17.6187C7.45569 18.6931 8.81394 19.4394 10.297 19.7701C11.7801 20.1008 13.3267 20.0022 14.7559 19.486C16.185 18.9698 17.4376 18.0573 18.367 16.8551C18.8779 16.1944 19.2795 15.4612 19.5608 14.6836Z" fill="currentColor"/>
        </symbol>


    </defs>
</svg>




